<svg width="80" height="65" viewBox="0 0 80 65" fill="none" xmlns="http://www.w3.org/2000/svg">
<path d="M28.2593 6.15397L23.9879 4.0974C22.5029 3.38238 20.837 3.13075 19.207 3.37525V3.37525C17.6715 3.60558 16.2327 4.26653 15.0575 5.28144L13.0288 7.03351C12.0255 7.90002 11.124 8.87789 10.3418 9.94826L9.7191 10.8004C7.86053 13.3437 6.46635 16.1957 5.60097 19.2245L5.37162 20.0272C4.78086 22.0949 4.40405 24.2178 4.24712 26.3624L3.99255 29.8416C3.83481 31.9973 3.90252 34.1637 4.19457 36.3054L5.08395 42.8275C5.16743 43.4397 5.39581 44.0231 5.75013 44.5293L5.96193 44.8319C6.55566 45.68 7.52589 46.1852 8.56123 46.1852V46.1852C9.22253 46.1852 9.86729 45.9786 10.4054 45.5942L12.2775 44.257C12.7414 43.9256 13.1772 43.5564 13.5804 43.1533L16.1286 40.6051L20.7382 35.025" stroke="#222222" stroke-width="6"/>
<path d="M52.5206 6.15397L56.7919 4.0974C58.277 3.38238 59.9428 3.13075 61.5728 3.37525V3.37525C63.1084 3.60558 64.5472 4.26653 65.7223 5.28144L67.751 7.03351C68.7544 7.90002 69.6558 8.87789 70.438 9.94826L71.0607 10.8004C72.9193 13.3437 74.3135 16.1957 75.1789 19.2245L75.4082 20.0272C75.999 22.0949 76.3758 24.2178 76.5327 26.3624L76.7873 29.8416C76.945 31.9973 76.8773 34.1637 76.5853 36.3054L75.6959 42.8275C75.6124 43.4397 75.384 44.0231 75.0297 44.5293L74.8179 44.8319C74.2242 45.68 73.254 46.1852 72.2186 46.1852V46.1852C71.5573 46.1852 70.9126 45.9786 70.3744 45.5942L68.5024 44.257C68.0384 43.9256 67.6026 43.5564 67.1994 43.1533L64.6513 40.6051L60.0416 35.025" stroke="#222222" stroke-width="6"/>
<path d="M40.7519 61.9551C39.7965 61.9551 38.851 61.76 37.9729 61.3816L35.1331 60.1582C33.5085 59.4583 31.6483 59.5852 30.1326 60.4994L28.7057 61.2166C27.8449 61.6493 26.801 61.4298 26.1848 60.6865C26.0817 60.5622 25.9647 60.4504 25.8359 60.3533L25.3578 59.9928C24.5283 59.3675 23.8432 58.5692 23.3494 57.6528L20.9614 53.221C19.3954 49.443 19.1009 45.254 20.1227 41.2922L20.2373 40.8477L20.9614 35.025V27.7466L20.5224 22.0105C20.3344 19.5533 20.6555 17.0837 21.4654 14.7576L21.5365 14.5532C21.7963 13.8072 22.114 13.0828 22.4868 12.3868C24.2975 9.00661 27.3311 6.44575 30.9542 5.23173C32.4859 4.71846 34.0933 4.45569 35.7079 4.45569H45.0719C46.6865 4.45569 48.2939 4.71846 49.8257 5.23173C53.4488 6.44575 56.4824 9.00661 58.293 12.3868C58.6658 13.0828 58.9836 13.8072 59.2433 14.5532L59.3145 14.7576C60.1244 17.0837 60.4454 19.5533 60.2574 22.0105L59.8185 27.7466V35.025L60.5425 40.8477L60.6572 41.2922C61.6789 45.254 61.3844 49.443 59.8185 53.221L57.4304 57.6528C56.9366 58.5692 56.2515 59.3675 55.4221 59.9928L54.944 60.3533C54.8152 60.4504 54.6981 60.5622 54.5951 60.6865C53.9789 61.4298 52.935 61.6493 52.0741 61.2166L50.6472 60.4994C49.1316 59.5852 47.2714 59.4583 45.6467 60.1582L42.807 61.3816C41.9288 61.76 40.9833 61.9551 40.0279 61.9551" stroke="#222222" stroke-width="6"/>
<path d="M40.3899 61.7125V53.221" stroke="#222222" stroke-width="6"/>
<path d="M35.572 49.1069L35.0152 48.3146C34.9866 48.2739 34.9653 48.2284 34.9524 48.1804C34.8817 47.9169 35.074 47.6559 35.3466 47.6454L40.3969 47.451L45.4472 47.6454C45.7199 47.6559 45.9122 47.9169 45.8414 48.1804C45.8285 48.2284 45.8073 48.2739 45.7786 48.3146L45.2218 49.1069C42.8731 52.4486 37.9207 52.4486 35.572 49.1069Z" fill="#222222" stroke="#222222" stroke-width="6"/>
<circle cx="29.9575" cy="27.9892" r="3" fill="#222222" stroke="#222222" stroke-width="1.2784"/>
<circle cx="50.8223" cy="27.9892" r="3" fill="#222222" stroke="#222222" stroke-width="1.2784"/>
</svg>
