<svg width="445" height="74" viewBox="0 0 445 74" fill="none" xmlns="http://www.w3.org/2000/svg">
<path d="M108.952 63.072C106.792 63.072 105.04 62.376 103.696 60.984C102.352 59.544 101.32 57.648 100.6 55.296C99.88 52.896 99.4 50.28 99.16 47.448C98.92 44.616 98.8 41.808 98.8 39.024C98.8 35.76 99.232 32.568 100.096 29.448C101.008 26.328 102.376 23.52 104.2 21.024C106.072 18.48 108.424 16.464 111.256 14.976C114.088 13.488 117.448 12.744 121.336 12.744C125.272 12.744 128.824 13.56 131.992 15.192C135.208 16.824 137.776 19.152 139.696 22.176C141.616 25.2 142.576 28.8 142.576 32.976C142.576 36.72 142 39.936 140.848 42.624C139.696 45.312 138.136 47.52 136.168 49.248C134.248 50.928 132.088 52.176 129.688 52.992C127.336 53.808 124.936 54.192 122.488 54.144C120.04 54.048 117.76 53.568 115.648 52.704C115.888 53.856 116.008 55.032 116.008 56.232C116.056 57.432 115.864 58.56 115.432 59.616C115.048 60.624 114.328 61.464 113.272 62.136C112.264 62.76 110.824 63.072 108.952 63.072ZM122.056 42.912C123.784 42.912 125.272 42.288 126.52 41.04C127.816 39.744 128.464 38.256 128.464 36.576C128.464 34.848 127.816 33.36 126.52 32.112C125.272 30.816 123.784 30.168 122.056 30.168C120.328 30.168 118.816 30.816 117.52 32.112C116.272 33.36 115.648 34.848 115.648 36.576C115.648 38.256 116.272 39.744 117.52 41.04C118.816 42.288 120.328 42.912 122.056 42.912ZM161.435 63C157.883 63 154.787 62.136 152.147 60.408C149.555 58.632 147.539 56.184 146.099 53.064C144.707 49.896 144.011 46.248 144.011 42.12C144.011 38.088 144.635 34.92 145.883 32.616C147.179 30.312 149.003 29.16 151.355 29.16C153.035 29.16 154.307 29.472 155.171 30.096C156.083 30.72 156.683 31.512 156.971 32.472C157.307 33.384 157.475 34.368 157.475 35.424C157.475 36.768 157.379 38.136 157.187 39.528C157.043 40.92 156.971 42.408 156.971 43.992C156.971 46.248 157.427 47.904 158.339 48.96C159.299 49.968 160.331 50.472 161.435 50.472C162.635 50.472 163.667 49.968 164.531 48.96C165.443 47.904 165.899 46.248 165.899 43.992C165.899 42.408 165.827 40.992 165.683 39.744C165.539 38.496 165.467 37.08 165.467 35.496C165.467 33.816 165.875 32.352 166.691 31.104C167.507 29.808 169.139 29.16 171.587 29.16C173.939 29.16 175.739 30.312 176.987 32.616C178.235 34.92 178.859 38.088 178.859 42.12C178.859 46.248 178.211 49.896 176.915 53.064C175.619 56.184 173.675 58.632 171.083 60.408C168.539 62.136 165.323 63 161.435 63ZM188.621 73.296C186.749 73.296 185.285 72.552 184.229 71.064C183.221 69.624 182.501 67.728 182.069 65.376C181.685 63.024 181.445 60.504 181.349 57.816C181.301 55.128 181.277 52.584 181.277 50.184C181.277 48.072 181.325 45.816 181.421 43.416C181.565 40.968 181.853 38.664 182.285 36.504C182.765 34.296 183.557 32.496 184.661 31.104C185.765 29.712 187.277 29.016 189.197 29.016C190.685 29.016 191.837 29.304 192.653 29.88C193.469 30.456 194.093 31.128 194.525 31.896C195.629 31.08 196.997 30.432 198.629 29.952C200.261 29.424 202.013 29.16 203.885 29.16C207.005 29.16 209.837 29.928 212.381 31.464C214.973 33 217.037 35.064 218.573 37.656C220.109 40.2 220.877 43.032 220.877 46.152C220.877 49.272 220.109 52.128 218.573 54.72C217.037 57.312 214.973 59.376 212.381 60.912C209.837 62.448 207.005 63.216 203.885 63.216C201.965 63.216 200.189 62.976 198.557 62.496C196.925 61.968 195.557 61.272 194.453 60.408C194.453 62.808 194.357 64.992 194.165 66.96C194.021 68.928 193.541 70.464 192.725 71.568C191.909 72.72 190.541 73.296 188.621 73.296ZM203.525 51.264C204.773 51.264 205.853 50.808 206.765 49.896C207.725 48.936 208.205 47.832 208.205 46.584C208.205 45.336 207.725 44.256 206.765 43.344C205.853 42.384 204.773 41.904 203.525 41.904C202.277 41.904 201.173 42.384 200.213 43.344C199.301 44.256 198.845 45.336 198.845 46.584C198.845 47.832 199.301 48.936 200.213 49.896C201.173 50.808 202.277 51.264 203.525 51.264ZM240.466 63C236.914 63 233.818 62.136 231.178 60.408C228.586 58.632 226.57 56.184 225.13 53.064C223.738 49.896 223.042 46.248 223.042 42.12C223.042 38.088 223.666 34.92 224.914 32.616C226.21 30.312 228.034 29.16 230.386 29.16C232.066 29.16 233.338 29.472 234.202 30.096C235.114 30.72 235.714 31.512 236.002 32.472C236.338 33.384 236.506 34.368 236.506 35.424C236.506 36.768 236.41 38.136 236.218 39.528C236.074 40.92 236.002 42.408 236.002 43.992C236.002 46.248 236.458 47.904 237.37 48.96C238.33 49.968 239.362 50.472 240.466 50.472C241.666 50.472 242.698 49.968 243.562 48.96C244.474 47.904 244.93 46.248 244.93 43.992C244.93 42.408 244.858 40.992 244.714 39.744C244.57 38.496 244.498 37.08 244.498 35.496C244.498 33.816 244.906 32.352 245.722 31.104C246.538 29.808 248.17 29.16 250.618 29.16C252.97 29.16 254.77 30.312 256.018 32.616C257.266 34.92 257.89 38.088 257.89 42.12C257.89 46.248 257.242 49.896 255.946 53.064C254.65 56.184 252.706 58.632 250.114 60.408C247.57 62.136 244.354 63 240.466 63ZM269.435 62.856C266.987 62.856 265.163 61.944 263.963 60.12C262.763 58.248 261.971 55.464 261.587 51.768C261.203 48.024 261.011 43.344 261.011 37.728C261.011 34.032 261.059 30.648 261.155 27.576C261.299 24.504 261.635 21.864 262.163 19.656C262.691 17.4 263.531 15.672 264.683 14.472C265.835 13.224 267.443 12.6 269.507 12.6C271.571 12.6 273.179 13.224 274.331 14.472C275.483 15.672 276.323 17.4 276.851 19.656C277.379 21.864 277.691 24.504 277.787 27.576C277.931 30.648 278.003 34.032 278.003 37.728C278.003 46.176 277.403 52.488 276.203 56.664C275.051 60.792 272.795 62.856 269.435 62.856ZM293.166 63C290.814 63 288.654 62.64 286.686 61.92C284.766 61.2 283.23 60.12 282.078 58.68C280.926 57.192 280.35 55.32 280.35 53.064C280.35 51.144 280.926 49.512 282.078 48.168C283.23 46.824 284.766 45.792 286.686 45.072C288.654 44.352 290.814 43.992 293.166 43.992C294.558 43.992 295.83 44.112 296.982 44.352C298.134 44.544 298.926 44.784 299.358 45.072C299.358 43.968 298.902 43.008 297.99 42.192C297.078 41.328 295.494 40.896 293.238 40.896C292.182 40.896 291.342 40.992 290.718 41.184C290.142 41.328 289.614 41.52 289.134 41.76C288.654 42 288.102 42.216 287.478 42.408C286.902 42.552 286.11 42.624 285.102 42.624C283.614 42.624 282.414 42.24 281.502 41.472C280.638 40.656 280.206 39.432 280.206 37.8C280.206 36.312 280.614 35.04 281.43 33.984C282.294 32.88 283.398 31.968 284.742 31.248C286.086 30.528 287.526 30 289.062 29.664C290.646 29.328 292.158 29.16 293.598 29.16C297.87 29.16 301.35 29.952 304.038 31.536C306.726 33.072 308.718 35.088 310.014 37.584C311.31 40.08 311.958 42.792 311.958 45.72C311.958 47.352 311.814 48.864 311.526 50.256C311.286 51.648 310.95 52.728 310.518 53.496C311.19 54.072 311.694 54.744 312.03 55.512C312.414 56.28 312.606 57.072 312.606 57.888C312.606 59.232 312.15 60.432 311.238 61.488C310.374 62.496 309.126 63 307.494 63C306.246 63 305.262 62.808 304.542 62.424C303.822 62.04 303.102 61.536 302.382 60.912C301.23 61.584 299.958 62.112 298.566 62.496C297.174 62.832 295.374 63 293.166 63ZM294.606 55.728C295.71 55.728 296.526 55.512 297.054 55.08C297.63 54.6 297.918 54.072 297.918 53.496C297.918 52.92 297.63 52.416 297.054 51.984C296.526 51.504 295.71 51.264 294.606 51.264C293.55 51.264 292.734 51.504 292.158 51.984C291.582 52.416 291.294 52.92 291.294 53.496C291.294 54.072 291.582 54.6 292.158 55.08C292.734 55.512 293.55 55.728 294.606 55.728ZM323.207 63C321.575 63 320.231 62.472 319.175 61.416C318.167 60.312 317.399 58.848 316.871 57.024C316.343 55.2 315.983 53.112 315.791 50.76C315.599 48.408 315.503 45.984 315.503 43.488C315.503 41.808 315.527 40.104 315.575 38.376C315.671 36.6 315.911 34.968 316.295 33.48C316.727 31.992 317.423 30.792 318.383 29.88C319.391 28.92 320.807 28.44 322.631 28.44C323.927 28.44 325.103 28.752 326.159 29.376C327.215 29.952 327.887 30.84 328.175 32.04C329.279 31.032 330.671 30.312 332.351 29.88C334.079 29.4 335.855 29.16 337.679 29.16C339.215 29.16 340.775 29.544 342.359 30.312C343.943 31.032 345.287 32.04 346.391 33.336C347.495 34.632 348.047 36.096 348.047 37.728C348.047 39.12 347.519 40.44 346.463 41.688C345.455 42.936 344.015 43.56 342.143 43.56C341.327 43.56 340.655 43.464 340.127 43.272C339.599 43.032 339.095 42.816 338.615 42.624C338.135 42.432 337.559 42.336 336.887 42.336C335.111 42.336 333.479 43.056 331.991 44.496C330.551 45.888 329.831 47.784 329.831 50.184C329.831 51.432 329.783 52.8 329.687 54.288C329.639 55.728 329.423 57.12 329.039 58.464C328.703 59.808 328.079 60.912 327.167 61.776C326.255 62.592 324.935 63 323.207 63ZM357.888 28.08C355.536 28.08 353.544 27.24 351.912 25.56C350.28 23.832 349.464 21.744 349.464 19.296C349.464 17.664 349.824 16.2 350.544 14.904C351.312 13.608 352.32 12.576 353.568 11.808C354.864 10.992 356.304 10.584 357.888 10.584C359.424 10.584 360.816 10.992 362.064 11.808C363.36 12.576 364.392 13.608 365.16 14.904C365.928 16.2 366.312 17.664 366.312 19.296C366.312 20.928 365.928 22.416 365.16 23.76C364.392 25.056 363.36 26.112 362.064 26.928C360.816 27.696 359.424 28.08 357.888 28.08ZM357.888 63C355.968 63 354.528 62.448 353.568 61.344C352.656 60.24 352.032 58.56 351.696 56.304C351.408 54 351.24 51.048 351.192 47.448C351.192 43.848 351.336 40.896 351.624 38.592C351.96 36.288 352.608 34.608 353.568 33.552C354.528 32.448 355.968 31.896 357.888 31.896C359.808 31.896 361.224 32.448 362.136 33.552C363.096 34.608 363.744 36.288 364.08 38.592C364.416 40.896 364.584 43.848 364.584 47.448C364.632 51.048 364.488 54 364.152 56.304C363.816 58.56 363.168 60.24 362.208 61.344C361.248 62.448 359.808 63 357.888 63ZM392.389 63C390.709 63 389.005 62.664 387.277 61.992C385.549 61.32 383.989 60.336 382.597 59.04C381.253 57.744 380.269 56.184 379.645 54.36C379.213 53.16 378.901 51.672 378.709 49.896C378.517 48.12 378.373 46.224 378.277 44.208C378.229 42.192 378.205 40.224 378.205 38.304C376.333 38.256 374.533 38.088 372.805 37.8C371.125 37.512 369.733 36.984 368.629 36.216C367.573 35.4 367.045 34.224 367.045 32.688C367.045 30.816 367.549 29.424 368.557 28.512C369.565 27.552 370.909 26.928 372.589 26.64C374.317 26.304 376.189 26.112 378.205 26.064C378.253 24.576 378.373 23.064 378.565 21.528C378.805 19.944 379.189 18.48 379.717 17.136C380.245 15.792 380.989 14.712 381.949 13.896C382.909 13.032 384.157 12.6 385.693 12.6C387.757 12.6 389.245 13.248 390.157 14.544C391.117 15.84 391.717 17.52 391.957 19.584C392.197 21.648 392.293 23.808 392.245 26.064C394.741 26.016 396.949 26.112 398.869 26.352C400.789 26.592 402.301 27.12 403.405 27.936C404.509 28.752 405.061 30.048 405.061 31.824C405.061 33.648 404.437 35.016 403.189 35.928C401.941 36.84 400.309 37.464 398.293 37.8C396.277 38.088 394.141 38.256 391.885 38.304C391.885 39.216 391.861 40.176 391.813 41.184C391.813 42.144 391.813 43.128 391.813 44.136C391.813 46.872 392.005 48.816 392.389 49.968C392.677 50.832 393.061 51.384 393.541 51.624C394.069 51.864 394.717 52.008 395.485 52.056C396.253 52.056 397.189 52.2 398.293 52.488C399.397 52.728 400.261 53.328 400.885 54.288C401.509 55.2 401.821 56.376 401.821 57.816C401.821 59.448 400.957 60.72 399.229 61.632C397.549 62.544 395.269 63 392.389 63ZM418.512 73.656C416.928 73.656 415.44 73.44 414.048 73.008C412.704 72.624 411.6 71.976 410.736 71.064C409.872 70.2 409.439 69.072 409.439 67.68C409.439 66 410.208 64.728 411.744 63.864C413.28 63 415.008 62.616 416.928 62.712C419.04 62.76 420.672 62.664 421.824 62.424C423.024 62.136 423.936 61.608 424.56 60.84C420.144 60.84 416.616 60.192 413.976 58.896C411.336 57.6 409.416 55.584 408.216 52.848C407.064 50.112 406.488 46.56 406.488 42.192C406.488 39.84 406.728 37.704 407.208 35.784C407.688 33.816 408.456 32.256 409.512 31.104C410.616 29.904 412.056 29.304 413.832 29.304C416.232 29.304 417.936 30 418.944 31.392C419.952 32.736 420.456 34.32 420.456 36.144C420.456 37.776 420.432 39.384 420.384 40.968C420.336 42.504 420.384 43.872 420.528 45.072C420.672 46.272 421.056 47.232 421.68 47.952C422.304 48.672 423.288 49.032 424.632 49.032C425.976 49.032 426.96 48.672 427.584 47.952C428.208 47.232 428.592 46.272 428.736 45.072C428.88 43.872 428.928 42.528 428.88 41.04C428.832 39.504 428.808 37.92 428.808 36.288C428.808 34.272 429.312 32.616 430.32 31.32C431.376 29.976 433.08 29.304 435.432 29.304C437.256 29.304 438.696 29.904 439.752 31.104C440.856 32.256 441.648 33.816 442.128 35.784C442.608 37.704 442.848 39.84 442.848 42.192C442.848 46.128 442.416 49.992 441.552 53.784C440.736 57.528 439.368 60.888 437.448 63.864C435.576 66.84 433.08 69.216 429.96 70.992C426.888 72.768 423.072 73.656 418.512 73.656Z" fill="white"/>
<path d="M28.2593 13.154L23.9879 11.0974C22.5029 10.3824 20.837 10.1308 19.207 10.3752V10.3752C17.6715 10.6056 16.2327 11.2665 15.0575 12.2814L13.0288 14.0335C12.0255 14.9 11.124 15.8779 10.3418 16.9483L9.7191 17.8004C7.86053 20.3437 6.46635 23.1957 5.60097 26.2245L5.37162 27.0272C4.78086 29.0949 4.40405 31.2178 4.24712 33.3624L3.99255 36.8416C3.83481 38.9973 3.90252 41.1637 4.19457 43.3054L5.08395 49.8275C5.16743 50.4397 5.39581 51.0231 5.75013 51.5293L5.96193 51.8319C6.55566 52.68 7.52589 53.1852 8.56123 53.1852V53.1852C9.22253 53.1852 9.86729 52.9786 10.4054 52.5942L12.2775 51.257C12.7414 50.9256 13.1772 50.5564 13.5804 50.1533L16.1286 47.6051L20.7382 42.025" stroke="white" stroke-width="6"/>
<path d="M52.5206 13.154L56.7919 11.0974C58.277 10.3824 59.9428 10.1308 61.5728 10.3752V10.3752C63.1084 10.6056 64.5472 11.2665 65.7223 12.2814L67.751 14.0335C68.7544 14.9 69.6558 15.8779 70.438 16.9483L71.0607 17.8004C72.9193 20.3437 74.3135 23.1957 75.1789 26.2245L75.4082 27.0272C75.999 29.0949 76.3758 31.2178 76.5327 33.3624L76.7873 36.8416C76.945 38.9973 76.8773 41.1637 76.5853 43.3054L75.6959 49.8275C75.6124 50.4397 75.384 51.0231 75.0297 51.5293L74.8179 51.8319C74.2242 52.68 73.254 53.1852 72.2186 53.1852V53.1852C71.5573 53.1852 70.9126 52.9786 70.3744 52.5942L68.5024 51.257C68.0384 50.9256 67.6026 50.5564 67.1994 50.1533L64.6513 47.6051L60.0416 42.025" stroke="white" stroke-width="6"/>
<path d="M40.7519 68.9551C39.7965 68.9551 38.851 68.76 37.9729 68.3816L35.1331 67.1582C33.5085 66.4583 31.6483 66.5852 30.1326 67.4994L28.7057 68.2166C27.8449 68.6493 26.801 68.4298 26.1848 67.6865C26.0817 67.5622 25.9647 67.4504 25.8359 67.3533L25.3578 66.9928C24.5283 66.3675 23.8432 65.5692 23.3494 64.6528L20.9614 60.221C19.3954 56.443 19.1009 52.254 20.1227 48.2922L20.2373 47.8477L20.9614 42.025V34.7466L20.5224 29.0105C20.3344 26.5533 20.6555 24.0837 21.4654 21.7576L21.5365 21.5532C21.7963 20.8072 22.114 20.0828 22.4868 19.3868C24.2975 16.0066 27.3311 13.4458 30.9542 12.2317C32.4859 11.7185 34.0933 11.4557 35.7079 11.4557H45.0719C46.6865 11.4557 48.2939 11.7185 49.8257 12.2317C53.4488 13.4458 56.4824 16.0066 58.293 19.3868C58.6658 20.0828 58.9836 20.8072 59.2433 21.5532L59.3145 21.7576C60.1244 24.0837 60.4454 26.5533 60.2574 29.0105L59.8185 34.7466V42.025L60.5425 47.8477L60.6572 48.2922C61.6789 52.254 61.3844 56.443 59.8185 60.221L57.4304 64.6528C56.9366 65.5692 56.2515 66.3675 55.4221 66.9928L54.944 67.3533C54.8152 67.4504 54.6981 67.5622 54.5951 67.6865C53.9789 68.4298 52.935 68.6493 52.0741 68.2166L50.6472 67.4994C49.1316 66.5852 47.2714 66.4583 45.6467 67.1582L42.807 68.3816C41.9288 68.76 40.9833 68.9551 40.0279 68.9551" stroke="white" stroke-width="6"/>
<path d="M40.3899 68.7125V60.221" stroke="white" stroke-width="6"/>
<path d="M35.572 56.1069L35.0152 55.3146C34.9866 55.2739 34.9653 55.2284 34.9524 55.1804C34.8817 54.9169 35.074 54.6559 35.3466 54.6454L40.3969 54.451L45.4472 54.6454C45.7199 54.6559 45.9122 54.9169 45.8414 55.1804C45.8285 55.2284 45.8073 55.2739 45.7786 55.3146L45.2218 56.1069C42.8731 59.4486 37.9207 59.4486 35.572 56.1069Z" fill="white" stroke="white" stroke-width="6"/>
<circle cx="29.9575" cy="34.9892" r="3" fill="white" stroke="white" stroke-width="1.2784"/>
<circle cx="50.8223" cy="34.9892" r="3" fill="white" stroke="white" stroke-width="1.2784"/>
</svg>
